<svg xmlns="http://www.w3.org/2000/svg" width="20" height="25.468" viewBox="0 0 20 25.468">
  <path id="Path_3" data-name="Path 3" d="M24.979,9.489a5.192,5.192,0,0,0-1.317-.21l-.023-.064C19.064,2.81,9,11.045,9,15.619l1.83-.915A12.182,12.182,0,0,1,9,18.364a14.017,14.017,0,0,0,2.562.3.741.741,0,0,0-.046.247v2.658A2.063,2.063,0,0,0,13.291,23.6a4.8,4.8,0,0,0,2.415,2.543,13.98,13.98,0,0,0,1.528.581c.224.073.457.137.7.192v.915a.522.522,0,0,1-.485.517l-3.2.215a1.953,1.953,0,0,0-1.83,1.944v1.83H26.594V30.5a1.953,1.953,0,0,0-1.83-1.944l-3.2-.215a.522.522,0,0,1-.485-.517v-.915c.242-.055.457-.119.7-.192a13.98,13.98,0,0,0,1.565-.581,4.8,4.8,0,0,0,2.415-2.53,2.063,2.063,0,0,0,1.775-2.045V18.913a.81.81,0,0,0-.114-.4,1.606,1.606,0,0,1,.8.769C28.671,20.194,30.889,11.141,24.979,9.489ZM27.07,19a1.464,1.464,0,0,1-.178-.371.316.316,0,0,1,.178.284Zm-5.49,9.8.65.041c-.137.38-.7,1.491-2.708,1.523s-2.58-1.134-2.708-1.519l.65-.046a.984.984,0,0,0,.915-.974v-.814l.293.032h.2a6.945,6.945,0,0,0,1.308,0h.192l.3-.032v.814A.984.984,0,0,0,21.58,28.794Zm3.994-5.64h-.142l-.055.137A4.36,4.36,0,0,1,23.145,25.7a14.08,14.08,0,0,1-1.473.576,6.968,6.968,0,0,1-.823.22,7.068,7.068,0,0,1-.974.114,6.889,6.889,0,0,1-1.679-.114h0a7.608,7.608,0,0,1-.819-.215A15.177,15.177,0,0,1,15.9,25.7a4.36,4.36,0,0,1-2.232-2.411l-.055-.137h-.142a1.606,1.606,0,0,1-1.5-1.587V18.913a.32.32,0,0,1,.105-.233c.366,0,.727,0,1.08-.027l.416,2.914.371-2.978a21.684,21.684,0,0,0,3.747-.682l-1.372.915A8.335,8.335,0,0,0,22.6,15.779c.073.188.124.3.124.3a6.638,6.638,0,0,0,2.406,2.447l.339,3.042.339-2.7a5.993,5.993,0,0,0,1.263.375v2.328A1.606,1.606,0,0,1,25.574,23.154Z" transform="translate(-9 -6.866)"/>
</svg>
